<mxfile host="app.diagrams.net" agent="Mozilla/5.0 (Macintosh; Intel Mac OS X 10.15; rv:134.0) Gecko/20100101 Firefox/134.0" version="26.0.10">
  <diagram name="Page-1" id="ZCigD_xHRB5VP0Ta_OVV">
    <mxGraphModel dx="2044" dy="2818" grid="1" gridSize="10" guides="1" tooltips="1" connect="1" arrows="1" fold="1" page="1" pageScale="1" pageWidth="850" pageHeight="1100" math="0" shadow="0">
      <root>
        <mxCell id="0" />
        <mxCell id="1" parent="0" />
        <mxCell id="IWBEC2b3mvxHnZxp4BnF-3" value="" style="sketch=0;points=[[0,0,0],[0.25,0,0],[0.5,0,0],[0.75,0,0],[1,0,0],[0,1,0],[0.25,1,0],[0.5,1,0],[0.75,1,0],[1,1,0],[0,0.25,0],[0,0.5,0],[0,0.75,0],[1,0.25,0],[1,0.5,0],[1,0.75,0]];outlineConnect=0;fontColor=#232F3E;fillColor=#ED7100;strokeColor=#ffffff;dashed=0;verticalLabelPosition=bottom;verticalAlign=top;align=center;html=1;fontSize=12;fontStyle=0;aspect=fixed;shape=mxgraph.aws4.resourceIcon;resIcon=mxgraph.aws4.lambda;" parent="1" vertex="1">
          <mxGeometry x="417" y="-295" width="78" height="78" as="geometry" />
        </mxCell>
        <mxCell id="IWBEC2b3mvxHnZxp4BnF-4" value="" style="sketch=0;points=[[0,0,0],[0.25,0,0],[0.5,0,0],[0.75,0,0],[1,0,0],[0,1,0],[0.25,1,0],[0.5,1,0],[0.75,1,0],[1,1,0],[0,0.25,0],[0,0.5,0],[0,0.75,0],[1,0.25,0],[1,0.5,0],[1,0.75,0]];outlineConnect=0;fontColor=#232F3E;fillColor=#7AA116;strokeColor=#ffffff;dashed=0;verticalLabelPosition=bottom;verticalAlign=top;align=center;html=1;fontSize=12;fontStyle=0;aspect=fixed;shape=mxgraph.aws4.resourceIcon;resIcon=mxgraph.aws4.s3;" parent="1" vertex="1">
          <mxGeometry x="249" y="-295" width="78" height="78" as="geometry" />
        </mxCell>
        <mxCell id="IWBEC2b3mvxHnZxp4BnF-6" value="" style="sketch=0;outlineConnect=0;fontColor=#232F3E;gradientColor=none;fillColor=#ED7100;strokeColor=none;dashed=0;verticalLabelPosition=bottom;verticalAlign=top;align=center;html=1;fontSize=12;fontStyle=0;aspect=fixed;pointerEvents=1;shape=mxgraph.aws4.container_registry_image;" parent="1" vertex="1">
          <mxGeometry x="100" y="-285" width="58" height="58" as="geometry" />
        </mxCell>
        <mxCell id="IWBEC2b3mvxHnZxp4BnF-82" style="edgeStyle=orthogonalEdgeStyle;rounded=0;orthogonalLoop=1;jettySize=auto;html=1;" parent="1" source="IWBEC2b3mvxHnZxp4BnF-10" edge="1">
          <mxGeometry relative="1" as="geometry">
            <mxPoint x="420" y="-421" as="targetPoint" />
          </mxGeometry>
        </mxCell>
        <mxCell id="IWBEC2b3mvxHnZxp4BnF-83" style="edgeStyle=orthogonalEdgeStyle;rounded=0;orthogonalLoop=1;jettySize=auto;html=1;" parent="1" source="IWBEC2b3mvxHnZxp4BnF-10" edge="1">
          <mxGeometry relative="1" as="geometry">
            <mxPoint x="531" y="-520" as="targetPoint" />
          </mxGeometry>
        </mxCell>
        <mxCell id="IWBEC2b3mvxHnZxp4BnF-10" value="" style="sketch=0;points=[[0,0,0],[0.25,0,0],[0.5,0,0],[0.75,0,0],[1,0,0],[0,1,0],[0.25,1,0],[0.5,1,0],[0.75,1,0],[1,1,0],[0,0.25,0],[0,0.5,0],[0,0.75,0],[1,0.25,0],[1,0.5,0],[1,0.75,0]];outlineConnect=0;fontColor=#232F3E;fillColor=#ED7100;strokeColor=#ffffff;dashed=0;verticalLabelPosition=bottom;verticalAlign=top;align=center;html=1;fontSize=12;fontStyle=0;aspect=fixed;shape=mxgraph.aws4.resourceIcon;resIcon=mxgraph.aws4.lambda;" parent="1" vertex="1">
          <mxGeometry x="492" y="-460" width="78" height="78" as="geometry" />
        </mxCell>
        <mxCell id="IWBEC2b3mvxHnZxp4BnF-11" value="" style="sketch=0;points=[[0,0,0],[0.25,0,0],[0.5,0,0],[0.75,0,0],[1,0,0],[0,1,0],[0.25,1,0],[0.5,1,0],[0.75,1,0],[1,1,0],[0,0.25,0],[0,0.5,0],[0,0.75,0],[1,0.25,0],[1,0.5,0],[1,0.75,0]];outlineConnect=0;fontColor=#232F3E;fillColor=#7AA116;strokeColor=#ffffff;dashed=0;verticalLabelPosition=bottom;verticalAlign=top;align=center;html=1;fontSize=12;fontStyle=0;aspect=fixed;shape=mxgraph.aws4.resourceIcon;resIcon=mxgraph.aws4.s3;" parent="1" vertex="1">
          <mxGeometry x="580" y="-295" width="78" height="78" as="geometry" />
        </mxCell>
        <mxCell id="IWBEC2b3mvxHnZxp4BnF-15" value="&lt;font style=&quot;font-size: 14px;&quot;&gt;RAW&lt;/font&gt;" style="text;html=1;align=center;verticalAlign=middle;whiteSpace=wrap;rounded=0;" parent="1" vertex="1">
          <mxGeometry x="258" y="-203" width="60" height="30" as="geometry" />
        </mxCell>
        <mxCell id="IWBEC2b3mvxHnZxp4BnF-16" value="Upload" style="text;html=1;align=center;verticalAlign=middle;whiteSpace=wrap;rounded=0;" parent="1" vertex="1">
          <mxGeometry x="170" y="-295" width="60" height="30" as="geometry" />
        </mxCell>
        <mxCell id="IWBEC2b3mvxHnZxp4BnF-19" value="&lt;font style=&quot;font-size: 14px;&quot;&gt;REKOGNIZE&lt;/font&gt;" style="text;html=1;align=center;verticalAlign=middle;whiteSpace=wrap;rounded=0;" parent="1" vertex="1">
          <mxGeometry x="349" y="-500" width="60" height="30" as="geometry" />
        </mxCell>
        <mxCell id="IWBEC2b3mvxHnZxp4BnF-30" value="" style="sketch=0;points=[[0,0,0],[0.25,0,0],[0.5,0,0],[0.75,0,0],[1,0,0],[0,1,0],[0.25,1,0],[0.5,1,0],[0.75,1,0],[1,1,0],[0,0.25,0],[0,0.5,0],[0,0.75,0],[1,0.25,0],[1,0.5,0],[1,0.75,0]];outlineConnect=0;fontColor=#232F3E;fillColor=#01A88D;strokeColor=#ffffff;dashed=0;verticalLabelPosition=bottom;verticalAlign=top;align=center;html=1;fontSize=12;fontStyle=0;aspect=fixed;shape=mxgraph.aws4.resourceIcon;resIcon=mxgraph.aws4.rekognition_2;" parent="1" vertex="1">
          <mxGeometry x="340" y="-460" width="78" height="78" as="geometry" />
        </mxCell>
        <mxCell id="IWBEC2b3mvxHnZxp4BnF-34" value="Trigger" style="text;html=1;align=center;verticalAlign=middle;whiteSpace=wrap;rounded=0;" parent="1" vertex="1">
          <mxGeometry x="340" y="-295" width="60" height="30" as="geometry" />
        </mxCell>
        <mxCell id="IWBEC2b3mvxHnZxp4BnF-35" value="Serve" style="text;html=1;align=center;verticalAlign=middle;whiteSpace=wrap;rounded=0;" parent="1" vertex="1">
          <mxGeometry x="674" y="-295" width="60" height="30" as="geometry" />
        </mxCell>
        <mxCell id="IWBEC2b3mvxHnZxp4BnF-59" style="edgeStyle=orthogonalEdgeStyle;rounded=0;orthogonalLoop=1;jettySize=auto;html=1;" parent="1" source="IWBEC2b3mvxHnZxp4BnF-41" edge="1">
          <mxGeometry relative="1" as="geometry">
            <mxPoint x="316" y="-917" as="targetPoint" />
          </mxGeometry>
        </mxCell>
        <mxCell id="IWBEC2b3mvxHnZxp4BnF-41" value="" style="sketch=0;outlineConnect=0;fontColor=#232F3E;gradientColor=none;fillColor=#ED7100;strokeColor=none;dashed=0;verticalLabelPosition=bottom;verticalAlign=top;align=center;html=1;fontSize=12;fontStyle=0;aspect=fixed;pointerEvents=1;shape=mxgraph.aws4.container_registry_image;" parent="1" vertex="1">
          <mxGeometry x="106" y="-946" width="58" height="58" as="geometry" />
        </mxCell>
        <mxCell id="IWBEC2b3mvxHnZxp4BnF-42" value="" style="sketch=0;points=[[0,0,0],[0.25,0,0],[0.5,0,0],[0.75,0,0],[1,0,0],[0,1,0],[0.25,1,0],[0.5,1,0],[0.75,1,0],[1,1,0],[0,0.25,0],[0,0.5,0],[0,0.75,0],[1,0.25,0],[1,0.5,0],[1,0.75,0]];outlineConnect=0;fontColor=#232F3E;fillColor=#ED7100;strokeColor=#ffffff;dashed=0;verticalLabelPosition=bottom;verticalAlign=top;align=center;html=1;fontSize=12;fontStyle=0;aspect=fixed;shape=mxgraph.aws4.resourceIcon;resIcon=mxgraph.aws4.lambda;" parent="1" vertex="1">
          <mxGeometry x="318" y="-1136" width="78" height="78" as="geometry" />
        </mxCell>
        <mxCell id="IWBEC2b3mvxHnZxp4BnF-57" style="edgeStyle=orthogonalEdgeStyle;rounded=0;orthogonalLoop=1;jettySize=auto;html=1;" parent="1" edge="1">
          <mxGeometry relative="1" as="geometry">
            <mxPoint x="346" y="-1056" as="targetPoint" />
            <mxPoint x="346" y="-956" as="sourcePoint" />
          </mxGeometry>
        </mxCell>
        <mxCell id="IWBEC2b3mvxHnZxp4BnF-43" value="" style="sketch=0;points=[[0,0,0],[0.25,0,0],[0.5,0,0],[0.75,0,0],[1,0,0],[0,1,0],[0.25,1,0],[0.5,1,0],[0.75,1,0],[1,1,0],[0,0.25,0],[0,0.5,0],[0,0.75,0],[1,0.25,0],[1,0.5,0],[1,0.75,0]];outlineConnect=0;fontColor=#232F3E;fillColor=#7AA116;strokeColor=#ffffff;dashed=0;verticalLabelPosition=bottom;verticalAlign=top;align=center;html=1;fontSize=12;fontStyle=0;aspect=fixed;shape=mxgraph.aws4.resourceIcon;resIcon=mxgraph.aws4.s3;" parent="1" vertex="1">
          <mxGeometry x="318" y="-956" width="78" height="78" as="geometry" />
        </mxCell>
        <mxCell id="IWBEC2b3mvxHnZxp4BnF-45" value="" style="group" parent="1" vertex="1" connectable="0">
          <mxGeometry x="817" y="-981" width="128" height="128" as="geometry" />
        </mxCell>
        <mxCell id="IWBEC2b3mvxHnZxp4BnF-46" value="" style="shape=image;html=1;verticalAlign=top;verticalLabelPosition=bottom;labelBackgroundColor=#ffffff;imageAspect=0;aspect=fixed;image=https://cdn0.iconfinder.com/data/icons/devices-42/512/Macbook-128.png" parent="IWBEC2b3mvxHnZxp4BnF-45" vertex="1">
          <mxGeometry width="128" height="128" as="geometry" />
        </mxCell>
        <mxCell id="IWBEC2b3mvxHnZxp4BnF-47" value="" style="sketch=0;outlineConnect=0;fontColor=#232F3E;gradientColor=none;fillColor=#ED7100;strokeColor=none;dashed=0;verticalLabelPosition=bottom;verticalAlign=top;align=center;html=1;fontSize=12;fontStyle=0;aspect=fixed;pointerEvents=1;shape=mxgraph.aws4.container_registry_image;" parent="IWBEC2b3mvxHnZxp4BnF-45" vertex="1">
          <mxGeometry x="55" y="51" width="18" height="18" as="geometry" />
        </mxCell>
        <mxCell id="IWBEC2b3mvxHnZxp4BnF-50" value="Upload" style="text;html=1;align=center;verticalAlign=middle;whiteSpace=wrap;rounded=0;" parent="1" vertex="1">
          <mxGeometry x="204" y="-956" width="60" height="30" as="geometry" />
        </mxCell>
        <mxCell id="IWBEC2b3mvxHnZxp4BnF-51" value="HOSTING" style="text;html=1;align=center;verticalAlign=middle;whiteSpace=wrap;rounded=0;" parent="1" vertex="1">
          <mxGeometry x="327" y="-866" width="60" height="30" as="geometry" />
        </mxCell>
        <mxCell id="IWBEC2b3mvxHnZxp4BnF-56" value="Serve" style="text;html=1;align=center;verticalAlign=middle;whiteSpace=wrap;rounded=0;" parent="1" vertex="1">
          <mxGeometry x="425" y="-956" width="60" height="30" as="geometry" />
        </mxCell>
        <mxCell id="IWBEC2b3mvxHnZxp4BnF-58" style="edgeStyle=orthogonalEdgeStyle;rounded=0;orthogonalLoop=1;jettySize=auto;html=1;entryX=0.5;entryY=0;entryDx=0;entryDy=0;entryPerimeter=0;" parent="1" edge="1">
          <mxGeometry relative="1" as="geometry">
            <mxPoint x="366" y="-1058" as="sourcePoint" />
            <mxPoint x="366" y="-956" as="targetPoint" />
          </mxGeometry>
        </mxCell>
        <mxCell id="IWBEC2b3mvxHnZxp4BnF-60" value="Trigger" style="text;html=1;align=center;verticalAlign=middle;whiteSpace=wrap;rounded=0;" parent="1" vertex="1">
          <mxGeometry x="276" y="-1026" width="60" height="30" as="geometry" />
        </mxCell>
        <mxCell id="IWBEC2b3mvxHnZxp4BnF-61" value="Update imagesSource list" style="text;html=1;align=center;verticalAlign=middle;whiteSpace=wrap;rounded=0;" parent="1" vertex="1">
          <mxGeometry x="391" y="-1026" width="60" height="30" as="geometry" />
        </mxCell>
        <mxCell id="IWBEC2b3mvxHnZxp4BnF-62" value="UPDATE GALLERY" style="text;html=1;align=center;verticalAlign=middle;whiteSpace=wrap;rounded=0;" parent="1" vertex="1">
          <mxGeometry x="327" y="-1176" width="60" height="30" as="geometry" />
        </mxCell>
        <mxCell id="IWBEC2b3mvxHnZxp4BnF-63" value="&lt;h1 style=&quot;margin-top: 0px;&quot;&gt;&lt;font style=&quot;font-size: 30px;&quot;&gt;POC&lt;/font&gt;&lt;/h1&gt;&lt;div&gt;&lt;font style=&quot;font-size: 14px;&quot;&gt;The photogallery with automatically updated content when there is new image uploaded to s3 bucket.&lt;/font&gt;&lt;/div&gt;&lt;div&gt;&lt;font style=&quot;font-size: 14px;&quot;&gt;&lt;br&gt;&lt;/font&gt;&lt;/div&gt;&lt;div&gt;&lt;font style=&quot;font-size: 14px;&quot;&gt;Webapp served statically through S3 bucket.&lt;br&gt;&lt;/font&gt;&lt;/div&gt;&lt;div&gt;&lt;font style=&quot;font-size: 14px;&quot;&gt;&lt;br&gt;&lt;/font&gt;&lt;/div&gt;&lt;div&gt;&lt;font style=&quot;font-size: 14px;&quot;&gt;The https is allowed using CloudFront, custom domain is used through Route53.&lt;br&gt;&lt;/font&gt;&lt;/div&gt;&lt;div&gt;&lt;font style=&quot;font-size: 14px;&quot;&gt;&lt;br&gt;&lt;/font&gt;&lt;/div&gt;&lt;div&gt;&lt;font style=&quot;font-size: 14px;&quot;&gt;&lt;br&gt;&lt;/font&gt;&lt;/div&gt;" style="text;html=1;whiteSpace=wrap;overflow=hidden;rounded=0;" parent="1" vertex="1">
          <mxGeometry y="-1276" width="268" height="256" as="geometry" />
        </mxCell>
        <mxCell id="IWBEC2b3mvxHnZxp4BnF-64" value="&lt;h1 style=&quot;margin-top: 0px;&quot;&gt;&lt;font style=&quot;font-size: 30px;&quot;&gt;MVP1&lt;/font&gt;&lt;br&gt;&lt;/h1&gt;&lt;div&gt;&lt;font style=&quot;font-size: 14px;&quot;&gt;The photogallery with automatically updated content when there is new image uploaded to s3 bucket.&amp;nbsp;&lt;/font&gt;&lt;/div&gt;&lt;div&gt;&lt;font style=&quot;font-size: 14px;&quot;&gt;&lt;br&gt;&lt;/font&gt;&lt;/div&gt;&lt;div&gt;&lt;font style=&quot;font-size: 14px;&quot;&gt;Too big images will be automatically resized and also the alt text will be automatically generated.&lt;br&gt;&lt;/font&gt;&lt;/div&gt;&lt;div&gt;&lt;font style=&quot;font-size: 14px;&quot;&gt;&lt;br&gt;&lt;/font&gt;&lt;/div&gt;&lt;div&gt;&lt;font style=&quot;font-size: 14px;&quot;&gt;The alt text generation will happen through AWS Rekognition and OpenAI.&lt;/font&gt;&lt;/div&gt;&lt;div&gt;&lt;font style=&quot;font-size: 14px;&quot;&gt;&lt;br&gt;&lt;/font&gt;&lt;/div&gt;&lt;div&gt;&lt;font style=&quot;font-size: 14px;&quot;&gt;The aplication is monitored using CloudWatch and XRay.&lt;br&gt;&lt;/font&gt;&lt;/div&gt;" style="text;html=1;whiteSpace=wrap;overflow=hidden;rounded=0;" parent="1" vertex="1">
          <mxGeometry x="-1" y="-720" width="250" height="300" as="geometry" />
        </mxCell>
        <mxCell id="IWBEC2b3mvxHnZxp4BnF-66" style="edgeStyle=orthogonalEdgeStyle;rounded=0;orthogonalLoop=1;jettySize=auto;html=1;entryX=0;entryY=0.5;entryDx=0;entryDy=0;entryPerimeter=0;" parent="1" source="IWBEC2b3mvxHnZxp4BnF-6" target="IWBEC2b3mvxHnZxp4BnF-4" edge="1">
          <mxGeometry relative="1" as="geometry" />
        </mxCell>
        <mxCell id="IWBEC2b3mvxHnZxp4BnF-67" style="edgeStyle=orthogonalEdgeStyle;rounded=0;orthogonalLoop=1;jettySize=auto;html=1;entryX=0;entryY=0.5;entryDx=0;entryDy=0;entryPerimeter=0;" parent="1" source="IWBEC2b3mvxHnZxp4BnF-4" target="IWBEC2b3mvxHnZxp4BnF-3" edge="1">
          <mxGeometry relative="1" as="geometry" />
        </mxCell>
        <mxCell id="IWBEC2b3mvxHnZxp4BnF-68" style="edgeStyle=orthogonalEdgeStyle;rounded=0;orthogonalLoop=1;jettySize=auto;html=1;entryX=0;entryY=0.5;entryDx=0;entryDy=0;entryPerimeter=0;" parent="1" source="IWBEC2b3mvxHnZxp4BnF-3" target="IWBEC2b3mvxHnZxp4BnF-11" edge="1">
          <mxGeometry relative="1" as="geometry" />
        </mxCell>
        <mxCell id="IWBEC2b3mvxHnZxp4BnF-69" value="Upload" style="text;html=1;align=center;verticalAlign=middle;whiteSpace=wrap;rounded=0;" parent="1" vertex="1">
          <mxGeometry x="510" y="-295" width="60" height="30" as="geometry" />
        </mxCell>
        <mxCell id="IWBEC2b3mvxHnZxp4BnF-70" value="&lt;font style=&quot;font-size: 14px;&quot;&gt;RESIZE&lt;/font&gt;" style="text;html=1;align=center;verticalAlign=middle;whiteSpace=wrap;rounded=0;" parent="1" vertex="1">
          <mxGeometry x="426" y="-203" width="60" height="30" as="geometry" />
        </mxCell>
        <mxCell id="IWBEC2b3mvxHnZxp4BnF-71" value="HOSTING" style="text;html=1;align=center;verticalAlign=middle;whiteSpace=wrap;rounded=0;" parent="1" vertex="1">
          <mxGeometry x="589" y="-203" width="60" height="30" as="geometry" />
        </mxCell>
        <mxCell id="IWBEC2b3mvxHnZxp4BnF-78" value="" style="sketch=0;points=[[0,0,0],[0.25,0,0],[0.5,0,0],[0.75,0,0],[1,0,0],[0,1,0],[0.25,1,0],[0.5,1,0],[0.75,1,0],[1,1,0],[0,0.25,0],[0,0.5,0],[0,0.75,0],[1,0.25,0],[1,0.5,0],[1,0.75,0]];outlineConnect=0;fontColor=#232F3E;fillColor=#ED7100;strokeColor=#ffffff;dashed=0;verticalLabelPosition=bottom;verticalAlign=top;align=center;html=1;fontSize=12;fontStyle=0;aspect=fixed;shape=mxgraph.aws4.resourceIcon;resIcon=mxgraph.aws4.lambda;" parent="1" vertex="1">
          <mxGeometry x="658" y="-460" width="78" height="78" as="geometry" />
        </mxCell>
        <mxCell id="IWBEC2b3mvxHnZxp4BnF-84" style="edgeStyle=orthogonalEdgeStyle;rounded=0;orthogonalLoop=1;jettySize=auto;html=1;entryX=1;entryY=0.75;entryDx=0;entryDy=0;entryPerimeter=0;exitX=0.25;exitY=0;exitDx=0;exitDy=0;exitPerimeter=0;" parent="1" source="IWBEC2b3mvxHnZxp4BnF-11" target="IWBEC2b3mvxHnZxp4BnF-10" edge="1">
          <mxGeometry relative="1" as="geometry">
            <mxPoint x="610" y="-300" as="sourcePoint" />
            <Array as="points">
              <mxPoint x="600" y="-401" />
            </Array>
          </mxGeometry>
        </mxCell>
        <mxCell id="IWBEC2b3mvxHnZxp4BnF-86" style="edgeStyle=orthogonalEdgeStyle;rounded=0;orthogonalLoop=1;jettySize=auto;html=1;entryX=0.75;entryY=0;entryDx=0;entryDy=0;entryPerimeter=0;" parent="1" source="IWBEC2b3mvxHnZxp4BnF-78" target="IWBEC2b3mvxHnZxp4BnF-11" edge="1">
          <mxGeometry relative="1" as="geometry">
            <Array as="points">
              <mxPoint x="639" y="-400" />
              <mxPoint x="639" y="-338" />
            </Array>
          </mxGeometry>
        </mxCell>
        <mxCell id="IWBEC2b3mvxHnZxp4BnF-87" style="edgeStyle=orthogonalEdgeStyle;rounded=0;orthogonalLoop=1;jettySize=auto;html=1;entryX=0;entryY=0.5;entryDx=0;entryDy=0;entryPerimeter=0;" parent="1" source="IWBEC2b3mvxHnZxp4BnF-10" target="IWBEC2b3mvxHnZxp4BnF-78" edge="1">
          <mxGeometry relative="1" as="geometry" />
        </mxCell>
        <mxCell id="IWBEC2b3mvxHnZxp4BnF-88" value="&lt;font style=&quot;font-size: 14px;&quot;&gt;UPDATE GALLERY&lt;/font&gt;" style="text;html=1;align=center;verticalAlign=middle;whiteSpace=wrap;rounded=0;" parent="1" vertex="1">
          <mxGeometry x="667" y="-500" width="60" height="30" as="geometry" />
        </mxCell>
        <mxCell id="IWBEC2b3mvxHnZxp4BnF-89" value="&lt;font style=&quot;font-size: 14px;&quot;&gt;GENERATE DESCRIPTION&lt;/font&gt;" style="text;html=1;align=center;verticalAlign=middle;whiteSpace=wrap;rounded=0;" parent="1" vertex="1">
          <mxGeometry x="501" y="-370" width="60" height="30" as="geometry" />
        </mxCell>
        <mxCell id="IWBEC2b3mvxHnZxp4BnF-90" value="Trigger" style="text;html=1;align=center;verticalAlign=middle;whiteSpace=wrap;rounded=0;" parent="1" vertex="1">
          <mxGeometry x="540" y="-330" width="60" height="30" as="geometry" />
        </mxCell>
        <mxCell id="IWBEC2b3mvxHnZxp4BnF-91" value="Update imagesSource list" style="text;html=1;align=center;verticalAlign=middle;whiteSpace=wrap;rounded=0;" parent="1" vertex="1">
          <mxGeometry x="658" y="-350" width="60" height="30" as="geometry" />
        </mxCell>
        <mxCell id="IWBEC2b3mvxHnZxp4BnF-92" value="Trigger" style="text;html=1;align=center;verticalAlign=middle;whiteSpace=wrap;rounded=0;" parent="1" vertex="1">
          <mxGeometry x="580" y="-460" width="60" height="30" as="geometry" />
        </mxCell>
        <mxCell id="IWBEC2b3mvxHnZxp4BnF-93" value="&lt;font style=&quot;font-size: 14px;&quot;&gt;OPEN AI&lt;/font&gt;" style="text;html=1;align=center;verticalAlign=middle;whiteSpace=wrap;rounded=0;" parent="1" vertex="1">
          <mxGeometry x="495" y="-640" width="60" height="30" as="geometry" />
        </mxCell>
        <mxCell id="6tfg1JtmPCJkvG-FxkwJ-1" value="" style="sketch=0;points=[[0,0,0],[0.25,0,0],[0.5,0,0],[0.75,0,0],[1,0,0],[0,1,0],[0.25,1,0],[0.5,1,0],[0.75,1,0],[1,1,0],[0,0.25,0],[0,0.5,0],[0,0.75,0],[1,0.25,0],[1,0.5,0],[1,0.75,0]];points=[[0,0,0],[0.25,0,0],[0.5,0,0],[0.75,0,0],[1,0,0],[0,1,0],[0.25,1,0],[0.5,1,0],[0.75,1,0],[1,1,0],[0,0.25,0],[0,0.5,0],[0,0.75,0],[1,0.25,0],[1,0.5,0],[1,0.75,0]];outlineConnect=0;fontColor=#232F3E;fillColor=#E7157B;strokeColor=#ffffff;dashed=0;verticalLabelPosition=bottom;verticalAlign=top;align=center;html=1;fontSize=12;fontStyle=0;aspect=fixed;shape=mxgraph.aws4.resourceIcon;resIcon=mxgraph.aws4.cloudwatch_2;" parent="1" vertex="1">
          <mxGeometry x="880" y="-640" width="78" height="78" as="geometry" />
        </mxCell>
        <mxCell id="6tfg1JtmPCJkvG-FxkwJ-2" value="" style="sketch=0;points=[[0,0,0],[0.25,0,0],[0.5,0,0],[0.75,0,0],[1,0,0],[0,1,0],[0.25,1,0],[0.5,1,0],[0.75,1,0],[1,1,0],[0,0.25,0],[0,0.5,0],[0,0.75,0],[1,0.25,0],[1,0.5,0],[1,0.75,0]];outlineConnect=0;fontColor=#232F3E;fillColor=#C925D1;strokeColor=#ffffff;dashed=0;verticalLabelPosition=bottom;verticalAlign=top;align=center;html=1;fontSize=12;fontStyle=0;aspect=fixed;shape=mxgraph.aws4.resourceIcon;resIcon=mxgraph.aws4.xray;" parent="1" vertex="1">
          <mxGeometry x="1000" y="-640" width="78" height="78" as="geometry" />
        </mxCell>
        <mxCell id="6tfg1JtmPCJkvG-FxkwJ-3" value="Monitoring &amp;amp; Tracing" style="text;html=1;align=center;verticalAlign=middle;whiteSpace=wrap;rounded=0;" parent="1" vertex="1">
          <mxGeometry x="910" y="-550" width="140" height="30" as="geometry" />
        </mxCell>
        <mxCell id="6tfg1JtmPCJkvG-FxkwJ-4" value="" style="sketch=0;points=[[0,0,0],[0.25,0,0],[0.5,0,0],[0.75,0,0],[1,0,0],[0,1,0],[0.25,1,0],[0.5,1,0],[0.75,1,0],[1,1,0],[0,0.25,0],[0,0.5,0],[0,0.75,0],[1,0.25,0],[1,0.5,0],[1,0.75,0]];outlineConnect=0;fontColor=#232F3E;fillColor=#ED7100;strokeColor=#ffffff;dashed=0;verticalLabelPosition=bottom;verticalAlign=top;align=center;html=1;fontSize=12;fontStyle=0;aspect=fixed;shape=mxgraph.aws4.resourceIcon;resIcon=mxgraph.aws4.lambda;" parent="1" vertex="1">
          <mxGeometry x="585" y="415" width="78" height="78" as="geometry" />
        </mxCell>
        <mxCell id="6tfg1JtmPCJkvG-FxkwJ-5" value="" style="sketch=0;points=[[0,0,0],[0.25,0,0],[0.5,0,0],[0.75,0,0],[1,0,0],[0,1,0],[0.25,1,0],[0.5,1,0],[0.75,1,0],[1,1,0],[0,0.25,0],[0,0.5,0],[0,0.75,0],[1,0.25,0],[1,0.5,0],[1,0.75,0]];outlineConnect=0;fontColor=#232F3E;fillColor=#7AA116;strokeColor=#ffffff;dashed=0;verticalLabelPosition=bottom;verticalAlign=top;align=center;html=1;fontSize=12;fontStyle=0;aspect=fixed;shape=mxgraph.aws4.resourceIcon;resIcon=mxgraph.aws4.s3;" parent="1" vertex="1">
          <mxGeometry x="250" y="415" width="78" height="78" as="geometry" />
        </mxCell>
        <mxCell id="6tfg1JtmPCJkvG-FxkwJ-6" value="" style="sketch=0;outlineConnect=0;fontColor=#232F3E;gradientColor=none;fillColor=#ED7100;strokeColor=none;dashed=0;verticalLabelPosition=bottom;verticalAlign=top;align=center;html=1;fontSize=12;fontStyle=0;aspect=fixed;pointerEvents=1;shape=mxgraph.aws4.container_registry_image;" parent="1" vertex="1">
          <mxGeometry x="101" y="425" width="58" height="58" as="geometry" />
        </mxCell>
        <mxCell id="6tfg1JtmPCJkvG-FxkwJ-7" style="edgeStyle=orthogonalEdgeStyle;rounded=0;orthogonalLoop=1;jettySize=auto;html=1;" parent="1" source="6tfg1JtmPCJkvG-FxkwJ-9" edge="1">
          <mxGeometry relative="1" as="geometry">
            <mxPoint x="588" y="260" as="targetPoint" />
          </mxGeometry>
        </mxCell>
        <mxCell id="6tfg1JtmPCJkvG-FxkwJ-8" style="edgeStyle=orthogonalEdgeStyle;rounded=0;orthogonalLoop=1;jettySize=auto;html=1;" parent="1" source="6tfg1JtmPCJkvG-FxkwJ-9" edge="1">
          <mxGeometry relative="1" as="geometry">
            <mxPoint x="699" y="161" as="targetPoint" />
          </mxGeometry>
        </mxCell>
        <mxCell id="6tfg1JtmPCJkvG-FxkwJ-9" value="" style="sketch=0;points=[[0,0,0],[0.25,0,0],[0.5,0,0],[0.75,0,0],[1,0,0],[0,1,0],[0.25,1,0],[0.5,1,0],[0.75,1,0],[1,1,0],[0,0.25,0],[0,0.5,0],[0,0.75,0],[1,0.25,0],[1,0.5,0],[1,0.75,0]];outlineConnect=0;fontColor=#232F3E;fillColor=#ED7100;strokeColor=#ffffff;dashed=0;verticalLabelPosition=bottom;verticalAlign=top;align=center;html=1;fontSize=12;fontStyle=0;aspect=fixed;shape=mxgraph.aws4.resourceIcon;resIcon=mxgraph.aws4.lambda;" parent="1" vertex="1">
          <mxGeometry x="660" y="221" width="78" height="78" as="geometry" />
        </mxCell>
        <mxCell id="6tfg1JtmPCJkvG-FxkwJ-11" value="" style="sketch=0;points=[[0,0,0],[0.25,0,0],[0.5,0,0],[0.75,0,0],[1,0,0],[0,1,0],[0.25,1,0],[0.5,1,0],[0.75,1,0],[1,1,0],[0,0.25,0],[0,0.5,0],[0,0.75,0],[1,0.25,0],[1,0.5,0],[1,0.75,0]];outlineConnect=0;fontColor=#232F3E;fillColor=#7AA116;strokeColor=#ffffff;dashed=0;verticalLabelPosition=bottom;verticalAlign=top;align=center;html=1;fontSize=12;fontStyle=0;aspect=fixed;shape=mxgraph.aws4.resourceIcon;resIcon=mxgraph.aws4.s3;" parent="1" vertex="1">
          <mxGeometry x="748" y="415" width="78" height="78" as="geometry" />
        </mxCell>
        <mxCell id="6tfg1JtmPCJkvG-FxkwJ-12" value="&lt;font style=&quot;font-size: 14px;&quot;&gt;RAW&lt;/font&gt;" style="text;html=1;align=center;verticalAlign=middle;whiteSpace=wrap;rounded=0;" parent="1" vertex="1">
          <mxGeometry x="259" y="507" width="60" height="30" as="geometry" />
        </mxCell>
        <mxCell id="6tfg1JtmPCJkvG-FxkwJ-13" value="Upload" style="text;html=1;align=center;verticalAlign=middle;whiteSpace=wrap;rounded=0;" parent="1" vertex="1">
          <mxGeometry x="171" y="415" width="60" height="30" as="geometry" />
        </mxCell>
        <mxCell id="6tfg1JtmPCJkvG-FxkwJ-14" value="&lt;font style=&quot;font-size: 14px;&quot;&gt;REKOGNIZE&lt;/font&gt;" style="text;html=1;align=center;verticalAlign=middle;whiteSpace=wrap;rounded=0;" parent="1" vertex="1">
          <mxGeometry x="517" y="181" width="60" height="30" as="geometry" />
        </mxCell>
        <mxCell id="6tfg1JtmPCJkvG-FxkwJ-15" value="" style="sketch=0;points=[[0,0,0],[0.25,0,0],[0.5,0,0],[0.75,0,0],[1,0,0],[0,1,0],[0.25,1,0],[0.5,1,0],[0.75,1,0],[1,1,0],[0,0.25,0],[0,0.5,0],[0,0.75,0],[1,0.25,0],[1,0.5,0],[1,0.75,0]];outlineConnect=0;fontColor=#232F3E;fillColor=#01A88D;strokeColor=#ffffff;dashed=0;verticalLabelPosition=bottom;verticalAlign=top;align=center;html=1;fontSize=12;fontStyle=0;aspect=fixed;shape=mxgraph.aws4.resourceIcon;resIcon=mxgraph.aws4.rekognition_2;" parent="1" vertex="1">
          <mxGeometry x="508" y="221" width="78" height="78" as="geometry" />
        </mxCell>
        <mxCell id="6tfg1JtmPCJkvG-FxkwJ-16" value="Trigger" style="text;html=1;align=center;verticalAlign=middle;whiteSpace=wrap;rounded=0;" parent="1" vertex="1">
          <mxGeometry x="508" y="415" width="60" height="30" as="geometry" />
        </mxCell>
        <mxCell id="6tfg1JtmPCJkvG-FxkwJ-17" value="Serve" style="text;html=1;align=center;verticalAlign=middle;whiteSpace=wrap;rounded=0;" parent="1" vertex="1">
          <mxGeometry x="842" y="415" width="60" height="30" as="geometry" />
        </mxCell>
        <mxCell id="6tfg1JtmPCJkvG-FxkwJ-21" value="&lt;h1 style=&quot;margin-top: 0px;&quot;&gt;&lt;font style=&quot;font-size: 30px;&quot;&gt;MVP2&lt;/font&gt;&lt;br&gt;&lt;/h1&gt;&lt;div&gt;&lt;font style=&quot;font-size: 14px;&quot;&gt;The photogallery with automatically updated content when there is new image uploaded to s3 bucket.&amp;nbsp;&lt;/font&gt;&lt;/div&gt;&lt;div&gt;&lt;font style=&quot;font-size: 14px;&quot;&gt;&lt;br&gt;&lt;/font&gt;&lt;/div&gt;&lt;div&gt;&lt;font style=&quot;font-size: 14px;&quot;&gt;At first the quality check is performed to filter out too blurred, bright or dark images. User will be notified per email or SMS (they can choose which option they want) if their image did not went through the quality check.&lt;br&gt;&lt;/font&gt;&lt;/div&gt;&lt;div&gt;&lt;font style=&quot;font-size: 14px;&quot;&gt;&lt;br&gt;&lt;/font&gt;&lt;/div&gt;&lt;div&gt;&lt;font style=&quot;font-size: 14px;&quot;&gt;Too big images will be automatically resized and also the alt text will be automatically generated.&lt;br&gt;&lt;/font&gt;&lt;/div&gt;&lt;div&gt;&lt;font style=&quot;font-size: 14px;&quot;&gt;&lt;br&gt;&lt;/font&gt;&lt;/div&gt;&lt;div&gt;&lt;font style=&quot;font-size: 14px;&quot;&gt;The alt text generation will happen through AWS Rekognition and OpenAI.&lt;/font&gt;&lt;/div&gt;&lt;div&gt;&lt;font style=&quot;font-size: 14px;&quot;&gt;&lt;br&gt;&lt;/font&gt;&lt;/div&gt;&lt;div&gt;&lt;font style=&quot;font-size: 14px;&quot;&gt;The aplication is monitored using CloudWatch and XRay.&lt;/font&gt;&lt;/div&gt;" style="text;html=1;whiteSpace=wrap;overflow=hidden;rounded=0;" parent="1" vertex="1">
          <mxGeometry y="-18" width="370" height="350" as="geometry" />
        </mxCell>
        <mxCell id="6tfg1JtmPCJkvG-FxkwJ-22" style="edgeStyle=orthogonalEdgeStyle;rounded=0;orthogonalLoop=1;jettySize=auto;html=1;entryX=0;entryY=0.5;entryDx=0;entryDy=0;entryPerimeter=0;" parent="1" source="6tfg1JtmPCJkvG-FxkwJ-6" target="6tfg1JtmPCJkvG-FxkwJ-5" edge="1">
          <mxGeometry relative="1" as="geometry" />
        </mxCell>
        <mxCell id="6tfg1JtmPCJkvG-FxkwJ-23" style="edgeStyle=orthogonalEdgeStyle;rounded=0;orthogonalLoop=1;jettySize=auto;html=1;entryX=0;entryY=0.5;entryDx=0;entryDy=0;entryPerimeter=0;" parent="1" target="6tfg1JtmPCJkvG-FxkwJ-4" edge="1">
          <mxGeometry relative="1" as="geometry">
            <mxPoint x="495" y="454" as="sourcePoint" />
          </mxGeometry>
        </mxCell>
        <mxCell id="6tfg1JtmPCJkvG-FxkwJ-24" style="edgeStyle=orthogonalEdgeStyle;rounded=0;orthogonalLoop=1;jettySize=auto;html=1;entryX=0;entryY=0.5;entryDx=0;entryDy=0;entryPerimeter=0;" parent="1" source="6tfg1JtmPCJkvG-FxkwJ-4" target="6tfg1JtmPCJkvG-FxkwJ-11" edge="1">
          <mxGeometry relative="1" as="geometry" />
        </mxCell>
        <mxCell id="6tfg1JtmPCJkvG-FxkwJ-25" value="Upload" style="text;html=1;align=center;verticalAlign=middle;whiteSpace=wrap;rounded=0;" parent="1" vertex="1">
          <mxGeometry x="678" y="415" width="60" height="30" as="geometry" />
        </mxCell>
        <mxCell id="6tfg1JtmPCJkvG-FxkwJ-26" value="&lt;font style=&quot;font-size: 14px;&quot;&gt;RESIZE&lt;/font&gt;" style="text;html=1;align=center;verticalAlign=middle;whiteSpace=wrap;rounded=0;" parent="1" vertex="1">
          <mxGeometry x="594" y="507" width="60" height="30" as="geometry" />
        </mxCell>
        <mxCell id="6tfg1JtmPCJkvG-FxkwJ-27" value="HOSTING" style="text;html=1;align=center;verticalAlign=middle;whiteSpace=wrap;rounded=0;" parent="1" vertex="1">
          <mxGeometry x="757" y="507" width="60" height="30" as="geometry" />
        </mxCell>
        <mxCell id="6tfg1JtmPCJkvG-FxkwJ-31" value="" style="sketch=0;points=[[0,0,0],[0.25,0,0],[0.5,0,0],[0.75,0,0],[1,0,0],[0,1,0],[0.25,1,0],[0.5,1,0],[0.75,1,0],[1,1,0],[0,0.25,0],[0,0.5,0],[0,0.75,0],[1,0.25,0],[1,0.5,0],[1,0.75,0]];outlineConnect=0;fontColor=#232F3E;fillColor=#ED7100;strokeColor=#ffffff;dashed=0;verticalLabelPosition=bottom;verticalAlign=top;align=center;html=1;fontSize=12;fontStyle=0;aspect=fixed;shape=mxgraph.aws4.resourceIcon;resIcon=mxgraph.aws4.lambda;" parent="1" vertex="1">
          <mxGeometry x="826" y="221" width="78" height="78" as="geometry" />
        </mxCell>
        <mxCell id="6tfg1JtmPCJkvG-FxkwJ-32" style="edgeStyle=orthogonalEdgeStyle;rounded=0;orthogonalLoop=1;jettySize=auto;html=1;entryX=1;entryY=0.75;entryDx=0;entryDy=0;entryPerimeter=0;exitX=0.25;exitY=0;exitDx=0;exitDy=0;exitPerimeter=0;" parent="1" source="6tfg1JtmPCJkvG-FxkwJ-11" target="6tfg1JtmPCJkvG-FxkwJ-9" edge="1">
          <mxGeometry relative="1" as="geometry">
            <mxPoint x="778" y="410" as="sourcePoint" />
            <Array as="points">
              <mxPoint x="767" y="280" />
            </Array>
          </mxGeometry>
        </mxCell>
        <mxCell id="6tfg1JtmPCJkvG-FxkwJ-33" style="edgeStyle=orthogonalEdgeStyle;rounded=0;orthogonalLoop=1;jettySize=auto;html=1;entryX=0.75;entryY=0;entryDx=0;entryDy=0;entryPerimeter=0;exitX=0;exitY=0.75;exitDx=0;exitDy=0;exitPerimeter=0;" parent="1" source="6tfg1JtmPCJkvG-FxkwJ-31" target="6tfg1JtmPCJkvG-FxkwJ-11" edge="1">
          <mxGeometry relative="1" as="geometry">
            <Array as="points">
              <mxPoint x="807" y="279" />
            </Array>
          </mxGeometry>
        </mxCell>
        <mxCell id="6tfg1JtmPCJkvG-FxkwJ-34" style="edgeStyle=orthogonalEdgeStyle;rounded=0;orthogonalLoop=1;jettySize=auto;html=1;entryX=0;entryY=0.5;entryDx=0;entryDy=0;entryPerimeter=0;" parent="1" source="6tfg1JtmPCJkvG-FxkwJ-9" target="6tfg1JtmPCJkvG-FxkwJ-31" edge="1">
          <mxGeometry relative="1" as="geometry" />
        </mxCell>
        <mxCell id="6tfg1JtmPCJkvG-FxkwJ-35" value="&lt;font style=&quot;font-size: 14px;&quot;&gt;UPDATE GALLERY&lt;/font&gt;" style="text;html=1;align=center;verticalAlign=middle;whiteSpace=wrap;rounded=0;" parent="1" vertex="1">
          <mxGeometry x="835" y="181" width="60" height="30" as="geometry" />
        </mxCell>
        <mxCell id="6tfg1JtmPCJkvG-FxkwJ-36" value="&lt;font style=&quot;font-size: 14px;&quot;&gt;GENERATE DESCRIPTION&lt;/font&gt;" style="text;html=1;align=center;verticalAlign=middle;whiteSpace=wrap;rounded=0;" parent="1" vertex="1">
          <mxGeometry x="669" y="311" width="60" height="30" as="geometry" />
        </mxCell>
        <mxCell id="6tfg1JtmPCJkvG-FxkwJ-37" value="Trigger" style="text;html=1;align=center;verticalAlign=middle;whiteSpace=wrap;rounded=0;" parent="1" vertex="1">
          <mxGeometry x="699" y="360" width="60" height="30" as="geometry" />
        </mxCell>
        <mxCell id="6tfg1JtmPCJkvG-FxkwJ-38" value="Update imagesSource list" style="text;html=1;align=center;verticalAlign=middle;whiteSpace=wrap;rounded=0;" parent="1" vertex="1">
          <mxGeometry x="826" y="350" width="60" height="30" as="geometry" />
        </mxCell>
        <mxCell id="6tfg1JtmPCJkvG-FxkwJ-39" value="Trigger" style="text;html=1;align=center;verticalAlign=middle;whiteSpace=wrap;rounded=0;" parent="1" vertex="1">
          <mxGeometry x="748" y="221" width="60" height="30" as="geometry" />
        </mxCell>
        <mxCell id="6tfg1JtmPCJkvG-FxkwJ-40" value="&lt;font style=&quot;font-size: 14px;&quot;&gt;OPEN AI&lt;/font&gt;" style="text;html=1;align=center;verticalAlign=middle;whiteSpace=wrap;rounded=0;" parent="1" vertex="1">
          <mxGeometry x="663" y="41" width="60" height="30" as="geometry" />
        </mxCell>
        <mxCell id="6tfg1JtmPCJkvG-FxkwJ-41" value="" style="sketch=0;points=[[0,0,0],[0.25,0,0],[0.5,0,0],[0.75,0,0],[1,0,0],[0,1,0],[0.25,1,0],[0.5,1,0],[0.75,1,0],[1,1,0],[0,0.25,0],[0,0.5,0],[0,0.75,0],[1,0.25,0],[1,0.5,0],[1,0.75,0]];points=[[0,0,0],[0.25,0,0],[0.5,0,0],[0.75,0,0],[1,0,0],[0,1,0],[0.25,1,0],[0.5,1,0],[0.75,1,0],[1,1,0],[0,0.25,0],[0,0.5,0],[0,0.75,0],[1,0.25,0],[1,0.5,0],[1,0.75,0]];outlineConnect=0;fontColor=#232F3E;fillColor=#E7157B;strokeColor=#ffffff;dashed=0;verticalLabelPosition=bottom;verticalAlign=top;align=center;html=1;fontSize=12;fontStyle=0;aspect=fixed;shape=mxgraph.aws4.resourceIcon;resIcon=mxgraph.aws4.cloudwatch_2;" parent="1" vertex="1">
          <mxGeometry x="1048" y="70" width="78" height="78" as="geometry" />
        </mxCell>
        <mxCell id="6tfg1JtmPCJkvG-FxkwJ-42" value="" style="sketch=0;points=[[0,0,0],[0.25,0,0],[0.5,0,0],[0.75,0,0],[1,0,0],[0,1,0],[0.25,1,0],[0.5,1,0],[0.75,1,0],[1,1,0],[0,0.25,0],[0,0.5,0],[0,0.75,0],[1,0.25,0],[1,0.5,0],[1,0.75,0]];outlineConnect=0;fontColor=#232F3E;fillColor=#C925D1;strokeColor=#ffffff;dashed=0;verticalLabelPosition=bottom;verticalAlign=top;align=center;html=1;fontSize=12;fontStyle=0;aspect=fixed;shape=mxgraph.aws4.resourceIcon;resIcon=mxgraph.aws4.xray;" parent="1" vertex="1">
          <mxGeometry x="1168" y="70" width="78" height="78" as="geometry" />
        </mxCell>
        <mxCell id="6tfg1JtmPCJkvG-FxkwJ-43" value="Monitoring &amp;amp; Tracing" style="text;html=1;align=center;verticalAlign=middle;whiteSpace=wrap;rounded=0;" parent="1" vertex="1">
          <mxGeometry x="1078" y="160" width="140" height="30" as="geometry" />
        </mxCell>
        <mxCell id="6tfg1JtmPCJkvG-FxkwJ-59" style="edgeStyle=orthogonalEdgeStyle;rounded=0;orthogonalLoop=1;jettySize=auto;html=1;" parent="1" source="6tfg1JtmPCJkvG-FxkwJ-44" target="6tfg1JtmPCJkvG-FxkwJ-57" edge="1">
          <mxGeometry relative="1" as="geometry" />
        </mxCell>
        <mxCell id="6tfg1JtmPCJkvG-FxkwJ-44" value="" style="sketch=0;points=[[0,0,0],[0.25,0,0],[0.5,0,0],[0.75,0,0],[1,0,0],[0,1,0],[0.25,1,0],[0.5,1,0],[0.75,1,0],[1,1,0],[0,0.25,0],[0,0.5,0],[0,0.75,0],[1,0.25,0],[1,0.5,0],[1,0.75,0]];outlineConnect=0;fontColor=#232F3E;fillColor=#ED7100;strokeColor=#ffffff;dashed=0;verticalLabelPosition=bottom;verticalAlign=top;align=center;html=1;fontSize=12;fontStyle=0;aspect=fixed;shape=mxgraph.aws4.resourceIcon;resIcon=mxgraph.aws4.lambda;" parent="1" vertex="1">
          <mxGeometry x="408" y="415" width="78" height="78" as="geometry" />
        </mxCell>
        <mxCell id="6tfg1JtmPCJkvG-FxkwJ-45" style="edgeStyle=orthogonalEdgeStyle;rounded=0;orthogonalLoop=1;jettySize=auto;html=1;entryX=0;entryY=0.5;entryDx=0;entryDy=0;entryPerimeter=0;" parent="1" source="6tfg1JtmPCJkvG-FxkwJ-5" target="6tfg1JtmPCJkvG-FxkwJ-44" edge="1">
          <mxGeometry relative="1" as="geometry" />
        </mxCell>
        <mxCell id="6tfg1JtmPCJkvG-FxkwJ-46" value="Trigger" style="text;html=1;align=center;verticalAlign=middle;whiteSpace=wrap;rounded=0;" parent="1" vertex="1">
          <mxGeometry x="336" y="415" width="60" height="30" as="geometry" />
        </mxCell>
        <mxCell id="6tfg1JtmPCJkvG-FxkwJ-47" value="&lt;font style=&quot;font-size: 14px;&quot;&gt;QUALITY CHECK&lt;br&gt;&lt;/font&gt;" style="text;html=1;align=center;verticalAlign=middle;whiteSpace=wrap;rounded=0;" parent="1" vertex="1">
          <mxGeometry x="417" y="360" width="60" height="30" as="geometry" />
        </mxCell>
        <mxCell id="6tfg1JtmPCJkvG-FxkwJ-54" style="edgeStyle=orthogonalEdgeStyle;rounded=0;orthogonalLoop=1;jettySize=auto;html=1;" parent="1" target="6tfg1JtmPCJkvG-FxkwJ-53" edge="1">
          <mxGeometry relative="1" as="geometry">
            <mxPoint x="487" y="662" as="sourcePoint" />
          </mxGeometry>
        </mxCell>
        <mxCell id="6tfg1JtmPCJkvG-FxkwJ-50" value="&lt;font style=&quot;font-size: 14px;&quot;&gt;USER NOTIFICATION&lt;br&gt;&lt;/font&gt;" style="text;html=1;align=center;verticalAlign=middle;whiteSpace=wrap;rounded=0;" parent="1" vertex="1">
          <mxGeometry x="417" y="722" width="60" height="30" as="geometry" />
        </mxCell>
        <mxCell id="6tfg1JtmPCJkvG-FxkwJ-51" value="Failed Check" style="text;html=1;align=center;verticalAlign=middle;whiteSpace=wrap;rounded=0;" parent="1" vertex="1">
          <mxGeometry x="366" y="540" width="60" height="30" as="geometry" />
        </mxCell>
        <mxCell id="6tfg1JtmPCJkvG-FxkwJ-53" value="" style="verticalLabelPosition=bottom;html=1;verticalAlign=top;align=center;strokeColor=none;fillColor=#00BEF2;shape=mxgraph.azure.user;" parent="1" vertex="1">
          <mxGeometry x="583.5" y="622" width="81" height="80" as="geometry" />
        </mxCell>
        <mxCell id="6tfg1JtmPCJkvG-FxkwJ-55" value="Email/SMS" style="text;html=1;align=center;verticalAlign=middle;whiteSpace=wrap;rounded=0;" parent="1" vertex="1">
          <mxGeometry x="506" y="620" width="60" height="30" as="geometry" />
        </mxCell>
        <mxCell id="6tfg1JtmPCJkvG-FxkwJ-57" value="" style="sketch=0;points=[[0,0,0],[0.25,0,0],[0.5,0,0],[0.75,0,0],[1,0,0],[0,1,0],[0.25,1,0],[0.5,1,0],[0.75,1,0],[1,1,0],[0,0.25,0],[0,0.5,0],[0,0.75,0],[1,0.25,0],[1,0.5,0],[1,0.75,0]];outlineConnect=0;fontColor=#232F3E;fillColor=#E7157B;strokeColor=#ffffff;dashed=0;verticalLabelPosition=bottom;verticalAlign=top;align=center;html=1;fontSize=12;fontStyle=0;aspect=fixed;shape=mxgraph.aws4.resourceIcon;resIcon=mxgraph.aws4.sns;" parent="1" vertex="1">
          <mxGeometry x="408" y="620" width="78" height="78" as="geometry" />
        </mxCell>
        <mxCell id="6tfg1JtmPCJkvG-FxkwJ-71" style="edgeStyle=orthogonalEdgeStyle;rounded=0;orthogonalLoop=1;jettySize=auto;html=1;" parent="1" source="6tfg1JtmPCJkvG-FxkwJ-60" target="6tfg1JtmPCJkvG-FxkwJ-62" edge="1">
          <mxGeometry relative="1" as="geometry" />
        </mxCell>
        <mxCell id="6tfg1JtmPCJkvG-FxkwJ-60" value="" style="sketch=0;points=[[0,0,0],[0.25,0,0],[0.5,0,0],[0.75,0,0],[1,0,0],[0,1,0],[0.25,1,0],[0.5,1,0],[0.75,1,0],[1,1,0],[0,0.25,0],[0,0.5,0],[0,0.75,0],[1,0.25,0],[1,0.5,0],[1,0.75,0]];outlineConnect=0;fontColor=#232F3E;fillColor=#8C4FFF;strokeColor=#ffffff;dashed=0;verticalLabelPosition=bottom;verticalAlign=top;align=center;html=1;fontSize=12;fontStyle=0;aspect=fixed;shape=mxgraph.aws4.resourceIcon;resIcon=mxgraph.aws4.cloudfront;" parent="1" vertex="1">
          <mxGeometry x="499" y="-956" width="78" height="78" as="geometry" />
        </mxCell>
        <mxCell id="6tfg1JtmPCJkvG-FxkwJ-72" style="edgeStyle=orthogonalEdgeStyle;rounded=0;orthogonalLoop=1;jettySize=auto;html=1;entryX=0;entryY=0.5;entryDx=0;entryDy=0;" parent="1" source="6tfg1JtmPCJkvG-FxkwJ-62" target="IWBEC2b3mvxHnZxp4BnF-46" edge="1">
          <mxGeometry relative="1" as="geometry" />
        </mxCell>
        <mxCell id="6tfg1JtmPCJkvG-FxkwJ-62" value="" style="sketch=0;points=[[0,0,0],[0.25,0,0],[0.5,0,0],[0.75,0,0],[1,0,0],[0,1,0],[0.25,1,0],[0.5,1,0],[0.75,1,0],[1,1,0],[0,0.25,0],[0,0.5,0],[0,0.75,0],[1,0.25,0],[1,0.5,0],[1,0.75,0]];outlineConnect=0;fontColor=#232F3E;fillColor=#8C4FFF;strokeColor=#ffffff;dashed=0;verticalLabelPosition=bottom;verticalAlign=top;align=center;html=1;fontSize=12;fontStyle=0;aspect=fixed;shape=mxgraph.aws4.resourceIcon;resIcon=mxgraph.aws4.route_53;" parent="1" vertex="1">
          <mxGeometry x="665" y="-956" width="78" height="78" as="geometry" />
        </mxCell>
        <mxCell id="6tfg1JtmPCJkvG-FxkwJ-70" style="edgeStyle=orthogonalEdgeStyle;rounded=0;orthogonalLoop=1;jettySize=auto;html=1;exitX=1;exitY=0.5;exitDx=0;exitDy=0;exitPerimeter=0;entryX=0;entryY=0.5;entryDx=0;entryDy=0;entryPerimeter=0;" parent="1" source="IWBEC2b3mvxHnZxp4BnF-43" target="6tfg1JtmPCJkvG-FxkwJ-60" edge="1">
          <mxGeometry relative="1" as="geometry" />
        </mxCell>
        <mxCell id="6tfg1JtmPCJkvG-FxkwJ-73" value="CDN" style="text;html=1;align=center;verticalAlign=middle;whiteSpace=wrap;rounded=0;" parent="1" vertex="1">
          <mxGeometry x="510" y="-866" width="60" height="30" as="geometry" />
        </mxCell>
        <mxCell id="6tfg1JtmPCJkvG-FxkwJ-74" value="DOMAIN" style="text;html=1;align=center;verticalAlign=middle;whiteSpace=wrap;rounded=0;" parent="1" vertex="1">
          <mxGeometry x="674" y="-866" width="60" height="30" as="geometry" />
        </mxCell>
        <mxCell id="6tfg1JtmPCJkvG-FxkwJ-75" value="" style="group" parent="1" vertex="1" connectable="0">
          <mxGeometry x="1075" y="-319" width="128" height="128" as="geometry" />
        </mxCell>
        <mxCell id="6tfg1JtmPCJkvG-FxkwJ-76" value="" style="shape=image;html=1;verticalAlign=top;verticalLabelPosition=bottom;labelBackgroundColor=#ffffff;imageAspect=0;aspect=fixed;image=https://cdn0.iconfinder.com/data/icons/devices-42/512/Macbook-128.png" parent="6tfg1JtmPCJkvG-FxkwJ-75" vertex="1">
          <mxGeometry width="128" height="128" as="geometry" />
        </mxCell>
        <mxCell id="6tfg1JtmPCJkvG-FxkwJ-77" value="" style="sketch=0;outlineConnect=0;fontColor=#232F3E;gradientColor=none;fillColor=#ED7100;strokeColor=none;dashed=0;verticalLabelPosition=bottom;verticalAlign=top;align=center;html=1;fontSize=12;fontStyle=0;aspect=fixed;pointerEvents=1;shape=mxgraph.aws4.container_registry_image;" parent="6tfg1JtmPCJkvG-FxkwJ-75" vertex="1">
          <mxGeometry x="55" y="50" width="18" height="18" as="geometry" />
        </mxCell>
        <mxCell id="6tfg1JtmPCJkvG-FxkwJ-78" style="edgeStyle=orthogonalEdgeStyle;rounded=0;orthogonalLoop=1;jettySize=auto;html=1;" parent="1" source="6tfg1JtmPCJkvG-FxkwJ-79" target="6tfg1JtmPCJkvG-FxkwJ-81" edge="1">
          <mxGeometry relative="1" as="geometry" />
        </mxCell>
        <mxCell id="6tfg1JtmPCJkvG-FxkwJ-79" value="" style="sketch=0;points=[[0,0,0],[0.25,0,0],[0.5,0,0],[0.75,0,0],[1,0,0],[0,1,0],[0.25,1,0],[0.5,1,0],[0.75,1,0],[1,1,0],[0,0.25,0],[0,0.5,0],[0,0.75,0],[1,0.25,0],[1,0.5,0],[1,0.75,0]];outlineConnect=0;fontColor=#232F3E;fillColor=#8C4FFF;strokeColor=#ffffff;dashed=0;verticalLabelPosition=bottom;verticalAlign=top;align=center;html=1;fontSize=12;fontStyle=0;aspect=fixed;shape=mxgraph.aws4.resourceIcon;resIcon=mxgraph.aws4.cloudfront;" parent="1" vertex="1">
          <mxGeometry x="757" y="-295" width="78" height="78" as="geometry" />
        </mxCell>
        <mxCell id="6tfg1JtmPCJkvG-FxkwJ-80" style="edgeStyle=orthogonalEdgeStyle;rounded=0;orthogonalLoop=1;jettySize=auto;html=1;entryX=0;entryY=0.5;entryDx=0;entryDy=0;" parent="1" source="6tfg1JtmPCJkvG-FxkwJ-81" edge="1">
          <mxGeometry relative="1" as="geometry">
            <mxPoint x="1075" y="-256" as="targetPoint" />
          </mxGeometry>
        </mxCell>
        <mxCell id="6tfg1JtmPCJkvG-FxkwJ-81" value="" style="sketch=0;points=[[0,0,0],[0.25,0,0],[0.5,0,0],[0.75,0,0],[1,0,0],[0,1,0],[0.25,1,0],[0.5,1,0],[0.75,1,0],[1,1,0],[0,0.25,0],[0,0.5,0],[0,0.75,0],[1,0.25,0],[1,0.5,0],[1,0.75,0]];outlineConnect=0;fontColor=#232F3E;fillColor=#8C4FFF;strokeColor=#ffffff;dashed=0;verticalLabelPosition=bottom;verticalAlign=top;align=center;html=1;fontSize=12;fontStyle=0;aspect=fixed;shape=mxgraph.aws4.resourceIcon;resIcon=mxgraph.aws4.route_53;" parent="1" vertex="1">
          <mxGeometry x="923" y="-295" width="78" height="78" as="geometry" />
        </mxCell>
        <mxCell id="6tfg1JtmPCJkvG-FxkwJ-82" value="CDN" style="text;html=1;align=center;verticalAlign=middle;whiteSpace=wrap;rounded=0;" parent="1" vertex="1">
          <mxGeometry x="768" y="-205" width="60" height="30" as="geometry" />
        </mxCell>
        <mxCell id="6tfg1JtmPCJkvG-FxkwJ-83" value="DOMAIN" style="text;html=1;align=center;verticalAlign=middle;whiteSpace=wrap;rounded=0;" parent="1" vertex="1">
          <mxGeometry x="932" y="-205" width="60" height="30" as="geometry" />
        </mxCell>
        <mxCell id="6tfg1JtmPCJkvG-FxkwJ-86" style="edgeStyle=orthogonalEdgeStyle;rounded=0;orthogonalLoop=1;jettySize=auto;html=1;entryX=0;entryY=0.5;entryDx=0;entryDy=0;entryPerimeter=0;" parent="1" source="IWBEC2b3mvxHnZxp4BnF-11" target="6tfg1JtmPCJkvG-FxkwJ-79" edge="1">
          <mxGeometry relative="1" as="geometry" />
        </mxCell>
        <mxCell id="6tfg1JtmPCJkvG-FxkwJ-105" value="" style="group" parent="1" vertex="1" connectable="0">
          <mxGeometry x="1243" y="392" width="128" height="128" as="geometry" />
        </mxCell>
        <mxCell id="6tfg1JtmPCJkvG-FxkwJ-106" value="" style="shape=image;html=1;verticalAlign=top;verticalLabelPosition=bottom;labelBackgroundColor=#ffffff;imageAspect=0;aspect=fixed;image=https://cdn0.iconfinder.com/data/icons/devices-42/512/Macbook-128.png" parent="6tfg1JtmPCJkvG-FxkwJ-105" vertex="1">
          <mxGeometry width="128" height="128" as="geometry" />
        </mxCell>
        <mxCell id="6tfg1JtmPCJkvG-FxkwJ-107" value="" style="sketch=0;outlineConnect=0;fontColor=#232F3E;gradientColor=none;fillColor=#ED7100;strokeColor=none;dashed=0;verticalLabelPosition=bottom;verticalAlign=top;align=center;html=1;fontSize=12;fontStyle=0;aspect=fixed;pointerEvents=1;shape=mxgraph.aws4.container_registry_image;" parent="6tfg1JtmPCJkvG-FxkwJ-105" vertex="1">
          <mxGeometry x="55" y="50" width="18" height="18" as="geometry" />
        </mxCell>
        <mxCell id="6tfg1JtmPCJkvG-FxkwJ-108" style="edgeStyle=orthogonalEdgeStyle;rounded=0;orthogonalLoop=1;jettySize=auto;html=1;" parent="1" source="6tfg1JtmPCJkvG-FxkwJ-109" target="6tfg1JtmPCJkvG-FxkwJ-111" edge="1">
          <mxGeometry relative="1" as="geometry" />
        </mxCell>
        <mxCell id="6tfg1JtmPCJkvG-FxkwJ-109" value="" style="sketch=0;points=[[0,0,0],[0.25,0,0],[0.5,0,0],[0.75,0,0],[1,0,0],[0,1,0],[0.25,1,0],[0.5,1,0],[0.75,1,0],[1,1,0],[0,0.25,0],[0,0.5,0],[0,0.75,0],[1,0.25,0],[1,0.5,0],[1,0.75,0]];outlineConnect=0;fontColor=#232F3E;fillColor=#8C4FFF;strokeColor=#ffffff;dashed=0;verticalLabelPosition=bottom;verticalAlign=top;align=center;html=1;fontSize=12;fontStyle=0;aspect=fixed;shape=mxgraph.aws4.resourceIcon;resIcon=mxgraph.aws4.cloudfront;" parent="1" vertex="1">
          <mxGeometry x="925" y="416" width="78" height="78" as="geometry" />
        </mxCell>
        <mxCell id="6tfg1JtmPCJkvG-FxkwJ-110" style="edgeStyle=orthogonalEdgeStyle;rounded=0;orthogonalLoop=1;jettySize=auto;html=1;entryX=0;entryY=0.5;entryDx=0;entryDy=0;" parent="1" source="6tfg1JtmPCJkvG-FxkwJ-111" edge="1">
          <mxGeometry relative="1" as="geometry">
            <mxPoint x="1243" y="455" as="targetPoint" />
          </mxGeometry>
        </mxCell>
        <mxCell id="6tfg1JtmPCJkvG-FxkwJ-111" value="" style="sketch=0;points=[[0,0,0],[0.25,0,0],[0.5,0,0],[0.75,0,0],[1,0,0],[0,1,0],[0.25,1,0],[0.5,1,0],[0.75,1,0],[1,1,0],[0,0.25,0],[0,0.5,0],[0,0.75,0],[1,0.25,0],[1,0.5,0],[1,0.75,0]];outlineConnect=0;fontColor=#232F3E;fillColor=#8C4FFF;strokeColor=#ffffff;dashed=0;verticalLabelPosition=bottom;verticalAlign=top;align=center;html=1;fontSize=12;fontStyle=0;aspect=fixed;shape=mxgraph.aws4.resourceIcon;resIcon=mxgraph.aws4.route_53;" parent="1" vertex="1">
          <mxGeometry x="1091" y="416" width="78" height="78" as="geometry" />
        </mxCell>
        <mxCell id="6tfg1JtmPCJkvG-FxkwJ-112" value="CDN" style="text;html=1;align=center;verticalAlign=middle;whiteSpace=wrap;rounded=0;" parent="1" vertex="1">
          <mxGeometry x="936" y="506" width="60" height="30" as="geometry" />
        </mxCell>
        <mxCell id="6tfg1JtmPCJkvG-FxkwJ-113" value="DOMAIN" style="text;html=1;align=center;verticalAlign=middle;whiteSpace=wrap;rounded=0;" parent="1" vertex="1">
          <mxGeometry x="1100" y="506" width="60" height="30" as="geometry" />
        </mxCell>
        <mxCell id="6tfg1JtmPCJkvG-FxkwJ-114" style="edgeStyle=orthogonalEdgeStyle;rounded=0;orthogonalLoop=1;jettySize=auto;html=1;entryX=0;entryY=0.5;entryDx=0;entryDy=0;entryPerimeter=0;" parent="1" source="6tfg1JtmPCJkvG-FxkwJ-11" target="6tfg1JtmPCJkvG-FxkwJ-109" edge="1">
          <mxGeometry relative="1" as="geometry" />
        </mxCell>
        <mxCell id="iV6iFtL2pTRZcg-NOudK-4" value="" style="group" vertex="1" connectable="0" parent="1">
          <mxGeometry x="490.99999999999994" y="-610" width="80" height="80" as="geometry" />
        </mxCell>
        <mxCell id="iV6iFtL2pTRZcg-NOudK-3" value="" style="whiteSpace=wrap;html=1;aspect=fixed;" vertex="1" parent="iV6iFtL2pTRZcg-NOudK-4">
          <mxGeometry width="80" height="80" as="geometry" />
        </mxCell>
        <mxCell id="IWBEC2b3mvxHnZxp4BnF-38" value="" style="shape=image;imageAspect=0;aspect=fixed;verticalLabelPosition=bottom;verticalAlign=top;image=data:image/svg+xml,PHN2ZyB4bWxucz0iaHR0cDovL3d3dy53My5vcmcvMjAwMC9zdmciIHZpZXdCb3g9IjAgMCAyNCAyNCIgcm9sZT0iaW1nIj48dGl0bGU+T3BlbkFJPC90aXRsZT48cGF0aCBkPSJNMjIuMjgxOSA5LjgyMTFhNS45ODQ3IDUuOTg0NyAwIDAgMC0uNTE1Ny00LjkxMDggNi4wNDYyIDYuMDQ2MiAwIDAgMC02LjUwOTgtMi45QTYuMDY1MSA2LjA2NTEgMCAwIDAgNC45ODA3IDQuMTgxOGE1Ljk4NDcgNS45ODQ3IDAgMCAwLTMuOTk3NyAyLjkgNi4wNDYyIDYuMDQ2MiAwIDAgMCAuNzQyNyA3LjA5NjYgNS45OCA1Ljk4IDAgMCAwIC41MTEgNC45MTA3IDYuMDUxIDYuMDUxIDAgMCAwIDYuNTE0NiAyLjkwMDFBNS45ODQ3IDUuOTg0NyAwIDAgMCAxMy4yNTk5IDI0YTYuMDU1NyA2LjA1NTcgMCAwIDAgNS43NzE4LTQuMjA1OCA1Ljk4OTQgNS45ODk0IDAgMCAwIDMuOTk3Ny0yLjkwMDEgNi4wNTU3IDYuMDU1NyAwIDAgMC0uNzQ3NS03LjA3Mjl6bS05LjAyMiAxMi42MDgxYTQuNDc1NSA0LjQ3NTUgMCAwIDEtMi44NzY0LTEuMDQwOGwuMTQxOS0uMDgwNCA0Ljc3ODMtMi43NTgyYS43OTQ4Ljc5NDggMCAwIDAgLjM5MjctLjY4MTN2LTYuNzM2OWwyLjAyIDEuMTY4NmEuMDcxLjA3MSAwIDAgMSAuMDM4LjA1MnY1LjU4MjZhNC41MDQgNC41MDQgMCAwIDEtNC40OTQ1IDQuNDk0NHptLTkuNjYwNy00LjEyNTRhNC40NzA4IDQuNDcwOCAwIDAgMS0uNTM0Ni0zLjAxMzdsLjE0Mi4wODUyIDQuNzgzIDIuNzU4MmEuNzcxMi43NzEyIDAgMCAwIC43ODA2IDBsNS44NDI4LTMuMzY4NXYyLjMzMjRhLjA4MDQuMDgwNCAwIDAgMS0uMDMzMi4wNjE1TDkuNzQgMTkuOTUwMmE0LjQ5OTIgNC40OTkyIDAgMCAxLTYuMTQwOC0xLjY0NjR6TTIuMzQwOCA3Ljg5NTZhNC40ODUgNC40ODUgMCAwIDEgMi4zNjU1LTEuOTcyOFYxMS42YS43NjY0Ljc2NjQgMCAwIDAgLjM4NzkuNjc2NWw1LjgxNDQgMy4zNTQzLTIuMDIwMSAxLjE2ODVhLjA3NTcuMDc1NyAwIDAgMS0uMDcxIDBsLTQuODMwMy0yLjc4NjVBNC41MDQgNC41MDQgMCAwIDEgMi4zNDA4IDcuODcyem0xNi41OTYzIDMuODU1OEwxMy4xMDM4IDguMzY0IDE1LjExOTIgNy4yYS4wNzU3LjA3NTcgMCAwIDEgLjA3MSAwbDQuODMwMyAyLjc5MTNhNC40OTQ0IDQuNDk0NCAwIDAgMS0uNjc2NSA4LjEwNDJ2LTUuNjc3MmEuNzkuNzkgMCAwIDAtLjQwNy0uNjY3em0yLjAxMDctMy4wMjMxbC0uMTQyLS4wODUyLTQuNzczNS0yLjc4MThhLjc3NTkuNzc1OSAwIDAgMC0uNzg1NCAwTDkuNDA5IDkuMjI5N1Y2Ljg5NzRhLjA2NjIuMDY2MiAwIDAgMSAuMDI4NC0uMDYxNWw0LjgzMDMtMi43ODY2YTQuNDk5MiA0LjQ5OTIgMCAwIDEgNi42ODAyIDQuNjZ6TTguMzA2NSAxMi44NjNsLTIuMDItMS4xNjM4YS4wODA0LjA4MDQgMCAwIDEtLjAzOC0uMDU2N1Y2LjA3NDJhNC40OTkyIDQuNDk5MiAwIDAgMSA3LjM3NTctMy40NTM3bC0uMTQyLjA4MDVMOC43MDQgNS40NTlhLjc5NDguNzk0OCAwIDAgMC0uMzkyNy42ODEzem0xLjA5NzYtMi4zNjU0bDIuNjAyLTEuNDk5OCAyLjYwNjkgMS40OTk4djIuOTk5NGwtMi41OTc0IDEuNDk5Ny0yLjYwNjctMS40OTk3WiIvPjwvc3ZnPg==;imageBackground=none;imageBorder=none;" parent="iV6iFtL2pTRZcg-NOudK-4" vertex="1">
          <mxGeometry x="3.0784615384616245" y="3.0769230769230944" width="73.84615384615384" height="73.84615384615384" as="geometry" />
        </mxCell>
        <mxCell id="iV6iFtL2pTRZcg-NOudK-5" value="" style="group" vertex="1" connectable="0" parent="1">
          <mxGeometry x="659" y="71" width="80" height="80" as="geometry" />
        </mxCell>
        <mxCell id="iV6iFtL2pTRZcg-NOudK-6" value="" style="whiteSpace=wrap;html=1;aspect=fixed;" vertex="1" parent="iV6iFtL2pTRZcg-NOudK-5">
          <mxGeometry width="80" height="80" as="geometry" />
        </mxCell>
        <mxCell id="iV6iFtL2pTRZcg-NOudK-7" value="" style="shape=image;imageAspect=0;aspect=fixed;verticalLabelPosition=bottom;verticalAlign=top;image=data:image/svg+xml,PHN2ZyB4bWxucz0iaHR0cDovL3d3dy53My5vcmcvMjAwMC9zdmciIHZpZXdCb3g9IjAgMCAyNCAyNCIgcm9sZT0iaW1nIj48dGl0bGU+T3BlbkFJPC90aXRsZT48cGF0aCBkPSJNMjIuMjgxOSA5LjgyMTFhNS45ODQ3IDUuOTg0NyAwIDAgMC0uNTE1Ny00LjkxMDggNi4wNDYyIDYuMDQ2MiAwIDAgMC02LjUwOTgtMi45QTYuMDY1MSA2LjA2NTEgMCAwIDAgNC45ODA3IDQuMTgxOGE1Ljk4NDcgNS45ODQ3IDAgMCAwLTMuOTk3NyAyLjkgNi4wNDYyIDYuMDQ2MiAwIDAgMCAuNzQyNyA3LjA5NjYgNS45OCA1Ljk4IDAgMCAwIC41MTEgNC45MTA3IDYuMDUxIDYuMDUxIDAgMCAwIDYuNTE0NiAyLjkwMDFBNS45ODQ3IDUuOTg0NyAwIDAgMCAxMy4yNTk5IDI0YTYuMDU1NyA2LjA1NTcgMCAwIDAgNS43NzE4LTQuMjA1OCA1Ljk4OTQgNS45ODk0IDAgMCAwIDMuOTk3Ny0yLjkwMDEgNi4wNTU3IDYuMDU1NyAwIDAgMC0uNzQ3NS03LjA3Mjl6bS05LjAyMiAxMi42MDgxYTQuNDc1NSA0LjQ3NTUgMCAwIDEtMi44NzY0LTEuMDQwOGwuMTQxOS0uMDgwNCA0Ljc3ODMtMi43NTgyYS43OTQ4Ljc5NDggMCAwIDAgLjM5MjctLjY4MTN2LTYuNzM2OWwyLjAyIDEuMTY4NmEuMDcxLjA3MSAwIDAgMSAuMDM4LjA1MnY1LjU4MjZhNC41MDQgNC41MDQgMCAwIDEtNC40OTQ1IDQuNDk0NHptLTkuNjYwNy00LjEyNTRhNC40NzA4IDQuNDcwOCAwIDAgMS0uNTM0Ni0zLjAxMzdsLjE0Mi4wODUyIDQuNzgzIDIuNzU4MmEuNzcxMi43NzEyIDAgMCAwIC43ODA2IDBsNS44NDI4LTMuMzY4NXYyLjMzMjRhLjA4MDQuMDgwNCAwIDAgMS0uMDMzMi4wNjE1TDkuNzQgMTkuOTUwMmE0LjQ5OTIgNC40OTkyIDAgMCAxLTYuMTQwOC0xLjY0NjR6TTIuMzQwOCA3Ljg5NTZhNC40ODUgNC40ODUgMCAwIDEgMi4zNjU1LTEuOTcyOFYxMS42YS43NjY0Ljc2NjQgMCAwIDAgLjM4NzkuNjc2NWw1LjgxNDQgMy4zNTQzLTIuMDIwMSAxLjE2ODVhLjA3NTcuMDc1NyAwIDAgMS0uMDcxIDBsLTQuODMwMy0yLjc4NjVBNC41MDQgNC41MDQgMCAwIDEgMi4zNDA4IDcuODcyem0xNi41OTYzIDMuODU1OEwxMy4xMDM4IDguMzY0IDE1LjExOTIgNy4yYS4wNzU3LjA3NTcgMCAwIDEgLjA3MSAwbDQuODMwMyAyLjc5MTNhNC40OTQ0IDQuNDk0NCAwIDAgMS0uNjc2NSA4LjEwNDJ2LTUuNjc3MmEuNzkuNzkgMCAwIDAtLjQwNy0uNjY3em0yLjAxMDctMy4wMjMxbC0uMTQyLS4wODUyLTQuNzczNS0yLjc4MThhLjc3NTkuNzc1OSAwIDAgMC0uNzg1NCAwTDkuNDA5IDkuMjI5N1Y2Ljg5NzRhLjA2NjIuMDY2MiAwIDAgMSAuMDI4NC0uMDYxNWw0LjgzMDMtMi43ODY2YTQuNDk5MiA0LjQ5OTIgMCAwIDEgNi42ODAyIDQuNjZ6TTguMzA2NSAxMi44NjNsLTIuMDItMS4xNjM4YS4wODA0LjA4MDQgMCAwIDEtLjAzOC0uMDU2N1Y2LjA3NDJhNC40OTkyIDQuNDk5MiAwIDAgMSA3LjM3NTctMy40NTM3bC0uMTQyLjA4MDVMOC43MDQgNS40NTlhLjc5NDguNzk0OCAwIDAgMC0uMzkyNy42ODEzem0xLjA5NzYtMi4zNjU0bDIuNjAyLTEuNDk5OCAyLjYwNjkgMS40OTk4djIuOTk5NGwtMi41OTc0IDEuNDk5Ny0yLjYwNjctMS40OTk3WiIvPjwvc3ZnPg==;imageBackground=none;imageBorder=none;" vertex="1" parent="iV6iFtL2pTRZcg-NOudK-5">
          <mxGeometry x="3.0784615384616245" y="3.0769230769230944" width="73.84615384615384" height="73.84615384615384" as="geometry" />
        </mxCell>
      </root>
    </mxGraphModel>
  </diagram>
</mxfile>
